<svg xmlns="http://www.w3.org/2000/svg" xmlns:xlink="http://www.w3.org/1999/xlink">
    <symbol fill="none" xmlns="http://www.w3.org/2000/svg" viewBox="0 0 20 20" id="checkbox-done">
        <circle cx="10" cy="10" r="9" fill="#4DD599" stroke="#4DD599" stroke-width="0.1"></circle>
        <path d="M14.3 7.20001L8.79999 12.7L6.29999 10.2" stroke="white" stroke-width="1.5" stroke-linecap="round" stroke-linejoin="round"></path>
    </symbol>
    <symbol fill="none" xmlns="http://www.w3.org/2000/svg" viewBox="0 0 20 20" id="checkbox-hover">
        <circle cx="10" cy="10" r="9" fill="#F2F2F2" stroke="#F2F2F2" stroke-width="2"></circle>
        <path d="M14.3 7.20001L8.79999 12.7L6.29999 10.2" stroke="#B3B3B3" stroke-width="1.5" stroke-linecap="round" stroke-linejoin="round"></path>
    </symbol>
    <symbol fill="none" xmlns="http://www.w3.org/2000/svg" viewBox="0 0 20 20" id="checkbox-initial">
        <circle cx="10" cy="10" r="9" stroke="#E8E8E8" stroke-width="2"></circle>
    </symbol>
    <symbol fill="none" xmlns="http://www.w3.org/2000/svg" viewBox="0 0 21 21" id="close">
        <path d="M10.315 0C4.62737 0 0 4.62737 0 10.315C0 16.0026 4.62737 20.63 10.315 20.63C16.0026 20.63 20.63 16.0026 20.63 10.315C20.63 4.62737 16.0026 0 10.315 0ZM14.0497 12.928C14.1265 13.0009 14.1879 13.0885 14.2303 13.1855C14.2727 13.2826 14.2952 13.3872 14.2966 13.4931C14.298 13.599 14.2781 13.7041 14.2382 13.8022C14.1983 13.9003 14.1392 13.9894 14.0643 14.0643C13.9894 14.1392 13.9003 14.1983 13.8022 14.2382C13.7041 14.2781 13.599 14.298 13.4931 14.2966C13.3872 14.2952 13.2826 14.2727 13.1855 14.2303C13.0885 14.1879 13.0009 14.1265 12.928 14.0497L10.315 11.4373L7.70203 14.0497C7.55202 14.1922 7.35226 14.2705 7.14536 14.2679C6.93846 14.2652 6.74077 14.1819 6.59446 14.0355C6.44814 13.8892 6.36477 13.6915 6.36212 13.4846C6.35947 13.2777 6.43775 13.078 6.58028 12.928L9.19275 10.315L6.58028 7.70203C6.43775 7.55202 6.35947 7.35226 6.36212 7.14536C6.36477 6.93846 6.44814 6.74077 6.59446 6.59446C6.74077 6.44814 6.93846 6.36477 7.14536 6.36212C7.35226 6.35947 7.55202 6.43775 7.70203 6.58028L10.315 9.19275L12.928 6.58028C13.078 6.43775 13.2777 6.35947 13.4846 6.36212C13.6915 6.36477 13.8892 6.44814 14.0355 6.59446C14.1819 6.74077 14.2652 6.93846 14.2679 7.14536C14.2705 7.35226 14.1922 7.55202 14.0497 7.70203L11.4373 10.315L14.0497 12.928Z" fill="#5C5C5C"></path>
    </symbol>
    <symbol fill="none" xmlns="http://www.w3.org/2000/svg" viewBox="0 0 14 12" id="list">
        <path d="M10.96 5.10001H5.74001C5.24321 5.10001 5.20001 5.50231 5.20001 6.00001C5.20001 6.49771 5.24321 6.90001 5.74001 6.90001H10.96C11.4568 6.90001 11.5 6.49771 11.5 6.00001C11.5 5.50231 11.4568 5.10001 10.96 5.10001ZM12.76 9.60001H5.74001C5.24321 9.60001 5.20001 10.0023 5.20001 10.5C5.20001 10.9977 5.24321 11.4 5.74001 11.4H12.76C13.2568 11.4 13.3 10.9977 13.3 10.5C13.3 10.0023 13.2568 9.60001 12.76 9.60001ZM5.74001 2.40001H12.76C13.2568 2.40001 13.3 1.99771 13.3 1.50001C13.3 1.00231 13.2568 0.600006 12.76 0.600006H5.74001C5.24321 0.600006 5.20001 1.00231 5.20001 1.50001C5.20001 1.99771 5.24321 2.40001 5.74001 2.40001ZM2.86001 5.10001H1.24001C0.743212 5.10001 0.700012 5.50231 0.700012 6.00001C0.700012 6.49771 0.743212 6.90001 1.24001 6.90001H2.86001C3.35681 6.90001 3.40001 6.49771 3.40001 6.00001C3.40001 5.50231 3.35681 5.10001 2.86001 5.10001ZM2.86001 9.60001H1.24001C0.743212 9.60001 0.700012 10.0023 0.700012 10.5C0.700012 10.9977 0.743212 11.4 1.24001 11.4H2.86001C3.35681 11.4 3.40001 10.9977 3.40001 10.5C3.40001 10.0023 3.35681 9.60001 2.86001 9.60001ZM2.86001 0.600006H1.24001C0.743212 0.600006 0.700012 1.00231 0.700012 1.50001C0.700012 1.99771 0.743212 2.40001 1.24001 2.40001H2.86001C3.35681 2.40001 3.40001 1.99771 3.40001 1.50001C3.40001 1.00231 3.35681 0.600006 2.86001 0.600006Z" fill="#7C7C7C"></path>
    </symbol>
    <symbol xmlns="http://www.w3.org/2000/svg" xmlns:xlink="http://www.w3.org/1999/xlink" preserveAspectRatio="xMidYMid" viewBox="0 0 100 100" id="loader">
        <path fill="none" stroke="#0c82e9" stroke-width="8" stroke-dasharray="42.76482137044271 42.76482137044271" d="M24.3 30C11.4 30 5 43.3 5 50s6.4 20 19.3 20c19.3 0 32.1-40 51.4-40 C88.6 30 95 43.3 95 50s-6.4 20-19.3 20C56.4 70 43.6 30 24.3 30z" stroke-linecap="round">
            <animate attributeName="stroke-dashoffset" repeatCount="indefinite" dur="1s" keyTimes="0;1" values="0;256.58892822265625"></animate>
        </path>
    </symbol>
    <symbol fill="none" xmlns="http://www.w3.org/2000/svg" viewBox="0 0 10 10" id="only-close">
        <path d="M6.24741 5L9.73899 1.50842C9.9047 1.343 9.99791 1.11853 9.99812 0.884393C9.99832 0.650251 9.90551 0.425617 9.74009 0.259907C9.57468 0.0941973 9.35021 0.000986589 9.11606 0.000779811C8.88192 0.000573033 8.65729 0.0933872 8.49158 0.258804L5 3.75038L1.50842 0.258804C1.34271 0.0930948 1.11796 0 0.883613 0C0.649264 0 0.424514 0.0930948 0.258804 0.258804C0.0930948 0.424514 0 0.649264 0 0.883613C0 1.11796 0.0930948 1.34271 0.258804 1.50842L3.75038 5L0.258804 8.49158C0.0930948 8.65729 0 8.88204 0 9.11639C0 9.35074 0.0930948 9.57549 0.258804 9.7412C0.424514 9.90691 0.649264 10 0.883613 10C1.11796 10 1.34271 9.90691 1.50842 9.7412L5 6.24962L8.49158 9.7412C8.65729 9.90691 8.88204 10 9.11639 10C9.35074 10 9.57549 9.90691 9.7412 9.7412C9.90691 9.57549 10 9.35074 10 9.11639C10 8.88204 9.90691 8.65729 9.7412 8.49158L6.24741 5Z" fill="#E3E3E3"></path>
    </symbol>
    <symbol fill="none" xmlns="http://www.w3.org/2000/svg" viewBox="0 0 15 15" id="pencil">
        <path d="M0 12.0504V14.5834C0 14.8167 0.183308 15 0.41661 15H2.9496C3.05792 15 3.16624 14.9583 3.24123 14.875L12.34 5.78458L9.21542 2.66001L0.124983 11.7504C0.0416611 11.8338 0 11.9338 0 12.0504ZM14.7563 3.36825C14.8336 3.29116 14.8949 3.1996 14.9367 3.0988C14.9785 2.99801 15 2.88995 15 2.78083C15 2.6717 14.9785 2.56365 14.9367 2.46285C14.8949 2.36205 14.8336 2.27049 14.7563 2.19341L12.8066 0.24367C12.7295 0.166428 12.6379 0.105146 12.5372 0.0633343C12.4364 0.021522 12.3283 0 12.2192 0C12.1101 0 12.002 0.021522 11.9012 0.0633343C11.8004 0.105146 11.7088 0.166428 11.6318 0.24367L10.107 1.76846L13.2315 4.89304L14.7563 3.36825Z" fill="#DFDFDF"></path>
    </symbol>
    <symbol fill="none" xmlns="http://www.w3.org/2000/svg" viewBox="0 0 12 12" id="plus">
        <path d="M6 1V11" stroke="#868686" stroke-width="1.5" stroke-linecap="round" stroke-linejoin="round"></path>
        <path d="M1 6H11" stroke="#868686" stroke-width="1.5" stroke-linecap="round" stroke-linejoin="round"></path>
    </symbol>
    <symbol fill="none" xmlns="http://www.w3.org/2000/svg" viewBox="0 0 20 20" id="test">
        <circle cx="10" cy="10" r="9" fill="#4DD599" stroke="#4DD599" stroke-width="2"></circle>
        <path d="M14.3 7.20001L8.79999 12.7L6.29999 10.2" stroke="white" stroke-width="1.5" stroke-linecap="round" stroke-linejoin="round"></path>
    </symbol>
</svg>